PathFileType	4	(X/Y/Z)	Walk10.trc
DataRate	CameraRate	NumFrames	NumMarkers	Units	OrigDataRate	OrigDataStartFrame	OrigNumFrames
200.000000	200.000000	6	68	mm	200.000000	611	783
Frame#	Times		LToe		LowerBodyModelVer		LBHD		LWRR		LElbow		RMT1		LACR1		RMT5		RToe		LUA1		RTB2		LWRU		RCAL		LCAR		RTB3		RTB4		RFA1		LMT5		RWRU		RMMAL		C7		LASI		RLFC		LTB2		LPSI		LLFC		LMMAL		RElbowM		LTH3		RASI		RPSI		LHJC		MidPelvis		OPelvis		PELOrigin		RHJC		SACR		XPelvis		YPelvis		ZPelvis		LCAL		RElbow		LFHD		RTH3		RCAR		STRN		RBHD		LMT1		RMFC		RKJC		LLMAL		RWRR		RLMAL		RUA1		RFHD		RBack		LMFC		LKJC		LTH4		RTH1		LTH1		LTH2		LTB1		LTB4		LTB3		RTH4		RTB1		RTH2
			X1	Y1	Z1	X2	Y2	Z2	X3	Y3	Z3	X4	Y4	Z4	X5	Y5	Z5	X6	Y6	Z6	X7	Y7	Z7	X8	Y8	Z8	X9	Y9	Z9	X10	Y10	Z10	X11	Y11	Z11	X12	Y12	Z12	X13	Y13	Z13	X14	Y14	Z14	X15	Y15	Z15	X16	Y16	Z16	X17	Y17	Z17	X18	Y18	Z18	X19	Y19	Z19	X20	Y20	Z20	X21	Y21	Z21	X22	Y22	Z22	X23	Y23	Z23	X24	Y24	Z24	X25	Y25	Z25	X26	Y26	Z26	X27	Y27	Z27	X28	Y28	Z28	X29	Y29	Z29	X30	Y30	Z30	X31	Y31	Z31	X32	Y32	Z32	X33	Y33	Z33	X34	Y34	Z34	X35	Y35	Z35	X36	Y36	Z36	X37	Y37	Z37	X38	Y38	Z38	X39	Y39	Z39	X40	Y40	Z40	X41	Y41	Z41	X42	Y42	Z42	X43	Y43	Z43	X44	Y44	Z44	X45	Y45	Z45	X46	Y46	Z46	X47	Y47	Z47	X48	Y48	Z48	X49	Y49	Z49	X50	Y50	Z50	X51	Y51	Z51	X52	Y52	Z52	X53	Y53	Z53	X54	Y54	Z54	X55	Y55	Z55	X56	Y56	Z56	X57	Y57	Z57	X58	Y58	Z58	X59	Y59	Z59	X60	Y60	Z60	X61	Y61	Z61	X62	Y62	Z62	X63	Y63	Z63	X64	Y64	Z64	X65	Y65	Z65	X66	Y66	Z66	X67	Y67	Z67	X68	Y68	Z68

611	3.055	69.913	65.691	-83.487	9	2014	4	114.35	1617.3	-53.333	169.05	820.8	-273.57	91.46	1092.2	-277.19	315.56	28.325	32.215	172.56	1426.9	-160.91	271.16	22.608	112.67	369.03	25.935	73.072	137.09	1226.6	-240.28	225.37	285.22	105.78	242.53	811.01	-259.47	105.5	33.735	12.726	113.88	952.41	-280.39	218.74	199.44	28.458	234.18	286.86	31.508	141.55	932.02	286.8	4.6872	73.617	-146.67	168.76	814.47	252.99	188.14	70.879	-2.1731	87.044	1481.4	12.177	201.22	1041.4	-156.81	211.85	524.38	124.64	139.49	337.47	-143.05	8.1821	1039.3	-30.223	231.24	522.28	-140.49	-42.004	177.31	-62.963	62.201	1091.2	211.63	238.34	578.38	-145.52	205.41	1058.3	154.63	9.1144	1043.1	38.986	133.57	941.27	-100.48	105.98	1045.5	1.6461	203.31	1049.9	-1.0897	203.31	1049.9	-1.0897	136.42	952.76	111.3	8.6482	1041.2	4.3818	283.22	1053.5	-2.3628	199.62	1129.7	-5.3693	204.39	1054.2	78.786	-130.36	198.35	-104.59	99.299	1088.4	289.1	292.03	1655.2	-29.148	206	571.58	130.46	239.43	801.84	277.66	21.288	1223.4	11.837	120.81	1609.8	83.508	20.274	64.908	-67.81	189.51	493.4	0.54865	200.68	508.89	62.596	-59.824	181.23	-146.56	241.75	850.65	230.97	158.32	67.327	74.276	169.03	1250	248.17	294.9	1652.7	45.801	201.83	1430.2	163.83	216.83	498.65	-15.501	224.03	510.46	-77.995	219.22	670.65	-158.82	174.76	753.98	174.52	200.15	760.7	-167.86	302.81	685.51	-189.11	207.59	394.37	-63.504	141.26	333.65	-69.847	69.361	269.52	-78.692	175.18	661.82	153.15	248.84	383.59	38.854	258.74	677.79	120.74
612	3.06	85.126	65.552	-84.126	9	2014	4	118.95	1617.7	-53.304	169.28	820.94	-273.58	93.903	1092.9	-276.6	315.57	28.249	32.193	176.85	1427.3	-160.73	271.08	22.528	112.78	369.12	25.691	73.069	140.36	1227.1	-239.92	226.34	285	105.81	242.72	810.54	-259.69	105.5	33.806	12.692	115.2	953.03	-280.05	219.28	199.29	28.446	235.03	286.65	31.564	147.51	932.94	287.48	19.105	72.982	-146.87	175.28	815.53	253.69	188.18	70.868	-2.1971	91.519	1481.9	12.422	205.75	1041.8	-156.34	213.84	524.27	124.78	149.81	338.08	-142.9	12.554	1039.9	-29.96	239.5	523.96	-140.35	-29.202	175.28	-62.484	67.304	1091.8	212.33	245.94	579.92	-145.38	209.75	1058.4	155.14	13.444	1043.6	39.257	137.89	941.71	-100.16	110.37	1045.9	2.0235	207.75	1050.1	-0.60112	207.75	1050.1	-0.60112	140.61	952.97	111.64	12.999	1041.7	4.6482	287.67	1053.6	-1.814	204.2	1129.9	-4.7965	208.78	1054.4	79.28	-118.14	194.76	-103.63	104.45	1089.1	289.81	296.67	1655.6	-29.129	208.25	571.51	130.62	246.08	803.32	278.19	25.699	1223.9	12.253	125.39	1610.3	83.546	35.414	64.189	-68.192	191.36	493.29	0.6203	202.6	508.78	62.698	-47.426	179.17	-145.98	248.03	852.1	231.42	158.44	67.494	74.189	173.91	1250.8	248.59	299.53	1653.1	45.828	206.44	1430.9	163.98	225.23	499.86	-15.379	232.36	511.91	-77.865	225.86	672.03	-158.79	178.38	754.16	174.57	205.76	762.04	-168.01	308.33	686.5	-189.18	217.08	395.41	-63.577	151.82	334.14	-69.753	80.724	269.1	-78.529	178.81	661.94	153.42	250.13	383.3	38.924	261.29	677.46	120.94
613	3.065	100.54	65.398	-84.836	9	2014	4	123.55	1618.2	-53.285	169.52	821.09	-273.6	96.361	1093.7	-276.03	315.58	28.178	32.172	181.13	1427.7	-160.57	271	22.457	112.88	369.2	25.459	73.068	143.64	1227.6	-239.56	227.3	284.79	105.84	242.91	810.07	-259.92	105.51	33.875	12.66	116.54	953.66	-279.72	219.81	199.13	28.433	235.86	286.43	31.621	153.44	933.84	288.13	33.707	72.272	-147.1	181.77	816.59	254.36	188.22	70.859	-2.2184	95.983	1482.4	12.662	210.24	1042.2	-155.89	215.82	524.15	124.9	160.12	338.64	-142.76	16.911	1040.4	-29.702	247.64	525.63	-140.23	-16.232	173.08	-61.98	72.395	1092.3	213.02	253.46	581.47	-145.26	214.06	1058.5	155.6	17.761	1044.1	39.517	142.19	942.15	-99.847	114.74	1046.3	2.3806	212.15	1050.4	-0.14658	212.15	1050.4	-0.14658	144.79	953.21	111.96	17.336	1042.3	4.9077	292.07	1053.7	-1.3037	208.72	1130.2	-4.2733	213.13	1054.5	79.739	-105.73	190.93	-102.59	109.58	1089.9	290.52	301.3	1655.9	-29.126	210.47	571.43	130.76	252.69	804.78	278.71	30.108	1224.4	12.663	129.97	1610.9	83.571	50.784	63.382	-68.628	193.19	493.18	0.67321	204.5	508.67	62.787	-34.889	176.93	-145.35	254.29	853.55	231.85	158.55	67.65	74.106	178.79	1251.6	249	304.16	1653.5	45.839	211.05	1431.6	164.12	233.53	501.09	-15.247	240.58	513.36	-77.737	232.45	673.42	-158.77	181.94	754.31	174.64	211.32	763.35	-168.16	313.64	687.5	-189.24	226.57	396.46	-63.647	162.3	334.52	-69.679	92.179	268.56	-78.363	182.59	662.04	153.66	251.41	383.01	38.981	263.83	677.13	121.13
614	3.07	116.14	65.237	-85.607	9	2014	4	128.14	1618.6	-53.274	169.77	821.27	-273.64	98.835	1094.4	-275.46	315.59	28.111	32.151	185.4	1428	-160.41	270.94	22.398	112.97	369.28	25.242	73.067	146.93	1228.1	-239.21	228.26	284.57	105.88	243.11	809.62	-260.15	105.51	33.941	12.63	117.89	954.28	-279.4	220.32	198.97	28.42	236.68	286.21	31.677	159.35	934.74	288.77	48.483	71.495	-147.36	188.23	817.65	255.01	188.26	70.852	-2.2382	100.44	1482.8	12.895	214.68	1042.6	-155.46	217.77	524.04	125.02	170.4	339.15	-142.62	21.254	1041	-29.447	255.66	527.29	-140.12	-3.0962	170.73	-61.455	77.474	1092.8	213.71	260.88	583.03	-145.16	218.34	1058.6	156.01	22.066	1044.6	39.769	146.47	942.58	-99.536	119.08	1046.7	2.7172	216.51	1050.6	0.27353	216.51	1050.6	0.27353	148.95	953.5	112.26	21.66	1042.8	5.1608	296.44	1053.9	-0.83162	213.2	1130.4	-3.8003	217.45	1054.7	80.162	-93.139	186.87	-101.5	114.71	1090.5	291.21	305.94	1656.2	-29.14	212.68	571.35	130.89	259.27	806.23	279.22	34.515	1224.8	13.065	134.56	1611.4	83.586	66.367	62.5	-69.111	195	493.07	0.70975	206.38	508.56	62.865	-22.21	174.54	-144.7	260.54	854.99	232.28	158.64	67.792	74.028	183.67	1252.3	249.4	308.78	1653.9	45.835	215.66	1432.3	164.25	241.72	502.35	-15.108	248.69	514.82	-77.613	238.98	674.81	-158.76	185.41	754.46	174.71	216.85	764.64	-168.31	318.77	688.53	-189.27	236.06	397.51	-63.715	172.72	334.78	-69.624	103.72	267.9	-78.193	186.47	662.11	153.85	252.71	382.72	39.026	266.38	676.8	121.31
615	3.075	131.9	65.08	-86.424	9	2014	4	132.73	1619	-53.271	170.03	821.45	-273.7	101.33	1095.1	-274.92	315.6	28.05	32.129	189.67	1428.3	-160.27	270.88	22.349	113.05	369.34	25.039	73.066	150.24	1228.5	-238.87	229.2	284.35	105.91	243.31	809.16	-260.39	105.5	34.003	12.602	119.26	954.91	-279.1	220.82	198.82	28.406	237.5	285.99	31.73	165.23	935.62	289.38	63.423	70.653	-147.64	194.67	818.69	255.63	188.3	70.847	-2.2578	104.89	1483.3	13.119	219.08	1042.9	-155.06	219.71	523.92	125.13	180.66	339.6	-142.49	25.584	1041.5	-29.196	263.55	528.92	-140.02	10.2	168.24	-60.913	82.543	1093.4	214.39	268.21	584.59	-145.07	222.57	1058.8	156.38	26.358	1045.1	40.012	150.72	943.01	-99.231	123.4	1047.1	3.0337	220.83	1050.9	0.65948	220.83	1050.9	0.65948	153.09	953.81	112.55	25.971	1043.3	5.4079	300.76	1054	-0.39651	217.62	1130.7	-3.3764	221.72	1055	80.551	-80.363	182.61	-100.35	119.84	1091.2	291.91	310.57	1656.5	-29.171	214.85	571.27	131.01	265.81	807.65	279.72	38.92	1225.3	13.459	139.14	1611.9	83.589	82.149	61.554	-69.633	196.79	492.97	0.73279	208.25	508.44	62.932	-9.3906	171.99	-144.03	266.77	856.41	232.69	158.71	67.919	73.955	188.54	1253	249.8	313.41	1654.2	45.816	220.27	1432.9	164.37	249.82	503.62	-14.966	256.69	516.27	-77.494	245.44	676.19	-158.77	188.8	754.58	174.8	222.33	765.91	-168.45	323.76	689.57	-189.28	245.56	398.58	-63.784	183.08	334.93	-69.585	115.35	267.13	-78.018	190.44	662.15	154	254.02	382.44	39.063	268.93	676.47	121.48
616	3.08	147.81	64.931	-87.271	9	2014	4	137.31	1619.4	-53.275	170.32	821.65	-273.76	103.84	1095.8	-274.39	315.61	27.993	32.105	193.94	1428.6	-160.14	270.83	22.313	113.13	369.4	24.851	73.064	153.55	1229	-238.53	230.14	284.14	105.93	243.52	808.7	-260.64	105.5	34.058	12.576	120.64	955.53	-278.8	221.32	198.66	28.392	238.33	285.76	31.777	171.09	936.48	289.98	78.518	69.752	-147.93	201.08	819.71	256.22	188.34	70.844	-2.2776	109.34	1483.7	13.332	223.44	1043.3	-154.68	221.62	523.8	125.24	190.89	339.99	-142.36	29.9	1042	-28.949	271.31	530.54	-139.94	23.653	165.61	-60.357	87.601	1093.9	215.06	275.43	586.15	-145	226.76	1059.1	156.7	30.639	1045.5	40.247	154.94	943.42	-98.934	127.69	1047.5	3.3304	225.1	1051.2	1.0119	225.1	1051.2	1.0119	157.2	954.15	112.81	30.269	1043.8	5.649	305.04	1054.2	0.002823	221.98	1131	-3.0001	225.95	1055.2	80.905	-67.4	178.15	-99.163	124.96	1091.9	292.59	315.2	1656.7	-29.217	217.01	571.17	131.12	272.32	809.05	280.21	43.323	1225.7	13.842	143.72	1612.4	83.581	98.113	60.559	-70.184	198.57	492.86	0.745	210.09	508.33	62.991	3.5725	169.29	-143.33	272.99	857.81	233.08	158.77	68.03	73.887	193.42	1253.7	250.18	318.03	1654.5	45.781	224.87	1433.5	164.48	257.82	504.91	-14.824	264.57	517.72	-77.382	251.84	677.57	-158.8	192.11	754.67	174.9	227.78	767.16	-168.58	328.64	690.63	-189.25	255.05	399.65	-63.856	193.39	334.98	-69.56	127.07	266.26	-77.837	194.45	662.15	154.11	255.34	382.15	39.094	271.49	676.14	121.65
